# xmcd CD database file
#
# Track frame offsets:
#	150
#	27050
#	57817
#	81060
#	95780
#	111737
#	141942
#	166975
#	184760
#	209147
#	226595
#	252770
#
# Disc length: 3621 seconds
#
# Revision: 2
# Processed by: cddbd v1.5.1PL0 Copyright (c) Steve Scherf et al.
# Submitted via: CDex 1.50
#
DISCID=a40e230c
DTITLE=FERNANDO TATEO - FERNANDO TATEO
DYEAR=2000
DGENRE=Jazz
TTITLE0=Stormy Weather
TTITLE1=I Search
TTITLE2=I Left My Heart in San Francisco
TTITLE3=Sleepless
TTITLE4=Have You Met Miss Jones
TTITLE5=Georgia on My Mind
TTITLE6=Moonlight Serenade
TTITLE7=Sleepless
TTITLE8=Chicago
TTITLE9=I Know Why
TTITLE10=Tuxedo Junction
TTITLE11=Unforgettable
EXTD=YEAR: 2000
EXTT0=
EXTT1=
EXTT2=
EXTT3=
EXTT4=
EXTT5=
EXTT6=
EXTT7=
EXTT8=
EXTT9=
EXTT10=
EXTT11=
PLAYORDER=
